<svg xmlns="http://www.w3.org/2000/svg" viewBox="0 0 191.17 195.93">
  <path fill="none" stroke="#333" stroke-width="2.29809" d="M22.5 97.2l58.07 17.53 17 57.54 17.52-57.58 57.55-17.5-57.56-17.03-17.52-58.04-17 58.04z"/>
  <g fill="#333">
    <path d="M22.5 97.2H97.6l-17 17.53zm75.08 0h75.07l-57.68-17zm0 0v75.07l17.4-57.54zm0 0V22.13l-17 58.08zM88.54 154.37c-24.7-3.95-44.2-23.45-48.16-48.16l4.27 1.3c4.23 21.45 21.16 38.37 42.6 42.6zm18.54 0l1.3-4.3c21.42-4.25 38.36-21.14 42.6-42.57l4.26-1.3c-3.96 24.7-23.46 44.2-48.16 48.17zm-66.7-66.74c4-24.67 23.48-44.16 48.16-48.12l-1.3 4.32c-21.4 4.23-38.3 21.1-42.55 42.52zm114.86 0l-4.3-1.3c-4.27-21.37-21.15-38.25-42.53-42.5l-1.27-4.32c24.64 4 44.13 23.48 48.1 48.13z"/>
    <path fill="maroon" stroke="#500" stroke-width=".2645827250219px" d="M97.58 22.13V97.2l-17-17z"/>
  </g>
  <text x="141.41" y="-2.91" stroke-width="0.34539473" style="line-height:1.25" font-size="13.81578922px" font-family="sans-serif" letter-spacing="0px" word-spacing="0px" transform="translate(-29.827 6.13) scale(.76603)"/>
  <text x="155.02" y="14.54" fill="#d40000" stroke-width="0.34539473" style="line-height:1.25;-inkscape-font-specification:Calibri" font-size="33.15789413px" font-family="Calibri" letter-spacing="0px" word-spacing="0px" transform="translate(-29.827 6.13) scale(.76603)">
    <tspan x="155.02" y="14.54" style="-inkscape-font-specification:'MS UI Gothic'" font-family="MS UI Gothic">N</tspan>
  </text>
  <text x="38.68" y="129.27" fill="#333" stroke-width="0.34539473" style="line-height:1.25;-inkscape-font-specification:Calibri" font-size="33.15789413px" font-family="Calibri" letter-spacing="0px" word-spacing="0px" transform="translate(-29.827 6.13) scale(.76603)">
    <tspan x="38.68" y="129.27" fill="#4d4d4d" style="-inkscape-font-specification:'MS UI Gothic'" font-family="MS UI Gothic">W</tspan>
  </text>
  <text x="257.98" y="135.56" fill="#333" stroke-width="0.36121342" style="line-height:1.25;-inkscape-font-specification:Calibri" transform="matrix(.80112 0 0 .73248 -29.827 6.13)" font-size="34.67648697px" font-family="Calibri" letter-spacing="0px" word-spacing="0px">
    <tspan x="257.98" y="135.56" fill="#4d4d4d" style="-inkscape-font-specification:'MS UI Gothic'" font-family="MS UI Gothic">E</tspan>
  </text>
  <text x="156.26" y="247.9" fill="#333" stroke-width="0.34539473" style="line-height:1.25;-inkscape-font-specification:Calibri" font-size="33.15789413px" font-family="Calibri" letter-spacing="0px" word-spacing="0px" transform="translate(-29.827 6.13) scale(.76603)">
    <tspan x="156.26" y="247.9" fill="#4d4d4d" style="-inkscape-font-specification:'MS UI Gothic'" font-family="MS UI Gothic">S</tspan>
  </text>
</svg>
