<?xml version="1.0" encoding="UTF-8" standalone="no"?>
<!-- Created with Inkscape (http://www.inkscape.org/) -->

<svg
   xmlns:dc="http://purl.org/dc/elements/1.1/"
   xmlns:cc="http://creativecommons.org/ns#"
   xmlns:rdf="http://www.w3.org/1999/02/22-rdf-syntax-ns#"
   xmlns:svg="http://www.w3.org/2000/svg"
   xmlns="http://www.w3.org/2000/svg"
   xmlns:sodipodi="http://sodipodi.sourceforge.net/DTD/sodipodi-0.dtd"
   xmlns:inkscape="http://www.inkscape.org/namespaces/inkscape"
   width="199.52661mm"
   height="85.614258mm"
   viewBox="0 0 199.52661 85.614258"
   version="1.1"
   id="svg4695"
   inkscape:version="0.92.2 (5c3e80d, 2017-08-06)"
   sodipodi:docname="lyttu-nordur.svg">
  <defs
     id="defs4689" />
  <sodipodi:namedview
     id="base"
     pagecolor="#ffffff"
     bordercolor="#666666"
     borderopacity="1.0"
     inkscape:pageopacity="0.0"
     inkscape:pageshadow="2"
     inkscape:zoom="0.98994949"
     inkscape:cx="594.22943"
     inkscape:cy="81.202145"
     inkscape:document-units="mm"
     inkscape:current-layer="layer1"
     showgrid="false"
     inkscape:window-width="1920"
     inkscape:window-height="1001"
     inkscape:window-x="-9"
     inkscape:window-y="-9"
     inkscape:window-maximized="1" />
  <metadata
     id="metadata4692">
    <rdf:RDF>
      <cc:Work
         rdf:about="">
        <dc:format>image/svg+xml</dc:format>
        <dc:type
           rdf:resource="http://purl.org/dc/dcmitype/StillImage" />
        <dc:title></dc:title>
      </cc:Work>
    </rdf:RDF>
  </metadata>
  <g
     inkscape:label="Layer 1"
     inkscape:groupmode="layer"
     id="layer1"
     transform="translate(-8.3379254,-6.2404734)">
    <path
       style="opacity:1;fill:#333333;stroke:#333333;stroke-width:0.43199998;stroke-miterlimit:4;stroke-dasharray:none;stroke-opacity:0.97250863"
       id="path4649"
       d="m 13.473454,7.9762514 c 0.167127,1.80128 0.268641,3.6050396 0.329432,5.4129196 0.08039,3.21639 0.273116,6.4271 0.562269,9.63105 0.367746,3.92912 1.04087,7.8179 1.863911,11.6744 0.651849,3.02513 1.617103,5.97595 2.895512,8.79441 0.229272,0.50547 0.481891,1.00001 0.722837,1.50002 0.84971,1.61114 1.684088,3.24493 2.747411,4.72975 0.481509,0.67239 0.740462,0.95073 1.265379,1.56518 0.719822,0.72867 1.565698,1.57926 2.663713,1.62718 0.206486,0.009 0.412357,-0.0289 0.618536,-0.0433 0.246938,-0.0623 0.49778,-0.11069 0.740813,-0.18679 0.661875,-0.20721 1.234254,-0.46876 1.867755,-0.75545 1.045056,-0.47295 2.070412,-0.98181 3.091373,-1.50413 0.296042,-0.15561 0.594654,-0.30643 0.888124,-0.46683 0.259929,-0.14207 1.029242,-0.58704 0.771832,-0.44046 -4.150093,2.36331 -5.220457,3.14409 -3.457491,1.89924 0,0 5.052664,-2.00795 5.052664,-2.00795 v 0 c -2.253417,1.77007 -4.87681,3.00623 -7.404946,4.33758 -1.028031,0.51007 -2.057322,1.02101 -3.111743,1.47522 -0.644545,0.27766 -1.312979,0.55946 -2.00075,0.71872 -0.274011,0.0634 -0.556512,0.082 -0.834769,0.12303 -0.626684,-0.0427 -0.740425,0.002 -1.311631,-0.22985 -0.884484,-0.35974 -1.543028,-1.10383 -2.166558,-1.79328 -0.514891,-0.65288 -0.762124,-0.94266 -1.237335,-1.64965 -1.032115,-1.53554 -1.848622,-3.20321 -2.672763,-4.85518 -1.546243,-3.35158 -2.887258,-6.79924 -3.610654,-10.43283 -0.834307,-3.87105 -1.472816,-7.77991 -1.9081341,-11.71683 -0.333041,-3.18363 -0.583558,-6.37355 -0.741718,-9.57089 -0.08522,-1.75331 -0.184587,-3.51189 -0.516369,-5.23938 0,0 4.8933001,-2.5959296 4.8933001,-2.5959296 z"
       inkscape:connector-curvature="0" />
    <path
       style="opacity:1;fill:#333333;stroke:#333333;stroke-width:0.43199998;stroke-miterlimit:4;stroke-dasharray:none;stroke-opacity:0.97250863"
       id="path4651"
       d="m 40.99892,32.289731 c 0.389461,1.95325 1.175488,3.78996 2.052735,5.5669 0.804707,1.47262 1.718374,3.0006 3.102232,4.00886 0.205385,0.14965 0.432945,0.2662 0.649417,0.39929 1.093922,0.50034 2.332096,0.77912 3.533135,0.52879 0.269504,-0.0562 0.526079,-0.16247 0.789119,-0.2437 0.273678,-0.13398 0.553768,-0.25558 0.821032,-0.40194 0.292362,-0.1601 1.149545,-0.67491 0.856242,-0.51654 -1.232035,0.66523 -2.400247,1.45442 -3.673198,2.03754 -0.346125,0.15856 0.59095,-0.48198 0.861709,-0.74962 0.730853,-0.72244 0.927843,-1.06675 1.530612,-1.89826 1.334571,-2.04294 2.158973,-4.35127 2.824572,-6.68347 0.351618,-1.16513 0.542412,-2.36341 0.717923,-3.56374 0.226052,-2.10125 0.03357,-1.02603 5.209736,-2.54045 0.240379,-0.0703 0.262668,0.42753 0.37152,0.65309 0.662916,1.37369 1.088369,2.84918 1.540388,4.29959 1.138071,3.99502 1.766449,8.12634 1.769274,12.28341 5.3e-4,0.89626 -0.05262,1.79174 -0.07897,2.68762 -0.266218,3.36655 -1.006099,6.73139 -2.68429,9.69616 -1.049327,1.85379 -1.385554,2.04194 -2.809767,3.58548 -3.03689,2.5243 -6.51325,4.7546 -10.385237,5.69052 -1.725552,0.41709 -3.622445,0.59282 -5.389621,0.61939 -1.011335,0.0153 -2.022043,-0.0588 -3.033064,-0.0883 -2.914581,-0.31787 -3.509314,-0.31345 -6.404732,-0.91181 -1.076849,-0.22254 -2.139254,-0.50998 -3.20888,-0.76499 0,0 3.886224,-2.68883 3.886224,-2.68883 v 0 c 1.065022,0.24612 2.122596,0.52703 3.195069,0.73835 2.918566,0.57502 3.474733,0.54959 6.414601,0.81725 1.016179,0.007 2.033161,0.0616 3.048537,0.0206 1.783302,-0.072 3.681753,-0.30858 5.408951,-0.78712 0.775766,-0.21491 2.211737,-1.61363 2.274676,-0.8111 0.06884,0.8777 -1.36629,1.23457 -2.226906,1.42023 -0.728895,0.15722 1.200026,-0.88543 1.80004,-1.32815 1.454401,-1.46885 1.822873,-1.67018 2.911166,-3.46558 1.749417,-2.88609 2.523447,-6.20905 2.838005,-9.53512 0.07482,-2.25473 0.155922,-3.04621 0.01254,-5.29771 -0.203821,-3.20051 -0.826651,-6.36404 -1.807178,-9.41543 -0.50328,-1.36409 -0.6384,-1.85058 -1.247637,-3.09539 -0.154853,-0.31638 -0.321974,-0.62765 -0.509871,-0.9256 -0.107095,-0.16982 -0.534014,-0.35429 -0.37239,-0.47339 4.063783,-2.99441 6.404493,-2.06991 4.466907,-2.78305 -0.131691,0.40652 -0.191352,0.82183 -0.280247,1.23975 -0.174709,0.82137 -0.383299,1.63545 -0.616473,2.4421 -0.699183,2.37034 -1.515484,4.73304 -2.795842,6.85991 -0.56986,0.85298 -0.777248,1.23065 -1.462177,1.99233 -0.256337,0.28506 -0.495673,0.60018 -0.816626,0.80982 -1.769277,1.15571 -3.612899,2.19354 -5.430835,3.27107 -0.295349,0.17506 -0.596448,0.342 -0.908058,0.48616 -0.2897,0.13401 -0.595051,0.23121 -0.892577,0.34681 -0.286909,0.0587 -0.570058,0.14041 -0.86073,0.17607 -1.301443,0.15972 -2.598983,-0.19542 -3.731738,-0.81919 -0.225063,-0.15785 -0.461706,-0.30036 -0.675191,-0.47356 -1.376375,-1.1166 -2.284854,-2.70586 -3.122308,-4.23435 -0.902896,-1.78584 -1.681673,-3.62336 -2.312461,-5.52396 0,0 4.850649,-2.65678 4.850649,-2.65678 z"
       inkscape:connector-curvature="0" />
    <path
       style="opacity:1;fill:#333333;stroke:#333333;stroke-width:0.43199998;stroke-miterlimit:4;stroke-dasharray:none;stroke-opacity:0.97250863"
       id="path4653"
       d="m 50.220652,6.4400314 c -1.636123,1.48542 -3.159406,3.09709 -4.532249,4.8295396 -0.400058,0.50486 -0.778127,1.02675 -1.167191,1.54012 -1.474698,2.22923 -0.779783,1.0794 -2.081263,3.45158 0,0 -4.616077,2.07306 -4.616077,2.07306 v 0 c 1.258972,-2.41213 0.584102,-1.24397 2.02016,-3.50708 1.619205,-2.21489 3.29039,-4.34176 5.254278,-6.2654796 0,0 5.122342,-2.12174 5.122342,-2.12174 z"
       inkscape:connector-curvature="0" />
    <path
       style="opacity:1;fill:#333333;stroke:#333333;stroke-width:0.43199998;stroke-miterlimit:4;stroke-dasharray:none;stroke-opacity:0.97250863"
       id="path4655"
       d="m 66.886687,22.142061 c 0.904999,3.55358 2.409309,6.91147 3.949248,10.22611 1.439918,2.93132 2.904424,5.88305 4.822438,8.53964 0.261276,0.36189 0.547987,0.70472 0.821981,1.05707 0.563838,0.65021 1.120109,1.35408 1.856939,1.82394 0.207939,0.1326 0.584972,0.32694 0.862298,0.27036 0.132125,-0.027 0.235112,-0.13212 0.352666,-0.19818 -1.442032,0.78281 -2.840797,1.65119 -4.326096,2.34841 -0.203489,0.0955 0.312848,-0.32765 0.42999,-0.51951 0.152302,-0.24944 0.271764,-0.51943 0.371978,-0.79398 0.409389,-1.12154 0.526899,-2.31682 0.6687,-3.49216 0.133993,-1.20545 0.08967,-2.41489 0.03799,-3.6226 0,0 4.711954,-2.42508 4.711954,-2.42508 v 0 c 0.04788,1.2359 0.08172,2.47258 -0.02934,3.70719 -0.119009,1.19589 -0.219369,2.40424 -0.516144,3.57337 -0.03187,0.12552 -0.389144,1.37153 -0.604615,1.5169 -1.644155,1.10917 -3.413244,2.02081 -5.119865,3.03122 -0.167492,-0.005 -0.338293,0.0204 -0.50247,-0.013 -1.084064,-0.22067 -2.088954,-1.74482 -2.710058,-2.53256 -0.259456,-0.3729 -0.529897,-0.7384 -0.778365,-1.11871 -1.803032,-2.75973 -3.255261,-5.7339 -4.721783,-8.67919 -0.906,-1.94062 -1.805874,-3.88405 -2.641928,-5.85622 -0.693044,-1.63482 -0.653241,-1.61339 -1.273596,-3.16935 -0.139848,-0.35076 -0.285255,-0.69926 -0.427884,-1.04889 0,0 4.765921,-2.6248 4.765921,-2.6248 z"
       inkscape:connector-curvature="0" />
    <path
       style="opacity:1;fill:#333333;stroke:#333333;stroke-width:0.43199998;stroke-miterlimit:4;stroke-dasharray:none;stroke-opacity:0.97250863"
       id="path4657"
       d="m 76.529826,27.814791 c -3.155294,1.78206 -6.266148,3.64221 -9.478433,5.31996 0,0 4.057753,-3.2617 4.057753,-3.2617 v 0 c 1.600287,-0.86074 1.041874,-0.54776 2.564323,-1.41422 0.34839,-0.19828 1.390018,-0.7993 1.043771,-0.59729 -5.254286,3.06539 -4.949722,2.88684 -3.348125,1.93692 0,0 5.160711,-1.98367 5.160711,-1.98367 z"
       inkscape:connector-curvature="0" />
    <path
       style="opacity:1;fill:#333333;stroke:#333333;stroke-width:0.43199998;stroke-miterlimit:4;stroke-dasharray:none;stroke-opacity:0.97250863"
       id="path4659"
       d="m 87.570923,23.052371 c 0.629404,2.47254 1.761271,4.78111 2.838993,7.08142 0.980749,2.06255 2.043358,4.08848 3.369733,5.95246 0.727937,1.02298 0.872373,1.15622 1.656485,2.08218 1.004771,1.10974 2.189234,2.09655 3.669919,2.47355 0.210735,0.0536 0.428519,0.0744 0.642776,0.11155 0.472101,-0.01 0.737111,0.0312 1.183051,-0.15928 0.18819,-0.0804 0.7033,-0.41827 0.52259,-0.32223 -1.37616,0.73131 -2.67948,1.61001 -4.109862,2.22857 -0.26389,0.11413 0.379118,-0.43575 0.530026,-0.68048 0.17621,-0.28576 0.297556,-0.60191 0.446336,-0.90286 0.696214,-1.98165 0.741863,-4.12838 0.211104,-6.15922 -0.106265,-0.4066 -0.262552,-0.79844 -0.393825,-1.19766 0,0 4.611541,-2.53857 4.611541,-2.53857 v 0 c 0.13959,0.41884 0.30454,0.83007 0.41876,1.25653 0.56187,2.09773 0.57085,4.31988 0.003,6.41349 -0.0872,0.22874 -0.5345,1.55142 -0.81486,1.75119 -1.65134,1.17663 -3.418241,2.18344 -5.162654,3.21708 -0.18627,0.11037 -0.403686,0.16303 -0.615715,0.20684 -0.520732,0.10764 -0.77212,0.0383 -1.292532,-0.0186 -0.223713,-0.0608 -0.451966,-0.10691 -0.671121,-0.18252 -1.503023,-0.51851 -2.69467,-1.58993 -3.701304,-2.78835 -0.722254,-0.91887 -0.945665,-1.17004 -1.616842,-2.16842 -1.28815,-1.91614 -2.326791,-3.97891 -3.350437,-6.04399 -1.121241,-2.29776 -2.253697,-4.59203 -3.244369,-6.95017 0,0 4.86926,-2.66252 4.86926,-2.66252 z"
       inkscape:connector-curvature="0" />
    <path
       style="opacity:1;fill:#333333;stroke:#333333;stroke-width:0.43199998;stroke-miterlimit:4;stroke-dasharray:none;stroke-opacity:0.97250863"
       id="path4661"
       d="m 90.847012,33.122731 c -0.213463,0.10321 -0.423875,0.21298 -0.640386,0.30964 -1.375434,0.61411 -2.787637,1.1454 -4.181224,1.71553 -0.403355,0.16502 -3.295592,1.37618 -3.681902,1.53783 -2.319605,0.97439 -1.179335,0.49981 -3.420483,1.42451 0,0 4.035002,-3.17869 4.035002,-3.17869 v 0 c 2.201238,-0.89756 1.079492,-0.43602 3.364865,-1.38548 2.967553,-1.24432 5.971315,-2.4203 8.85037,-3.86182 0,0 -4.326242,3.43848 -4.326242,3.43848 z"
       inkscape:connector-curvature="0" />
    <path
       style="opacity:1;fill:#333333;stroke:#333333;stroke-width:0.43199998;stroke-miterlimit:4;stroke-dasharray:none;stroke-opacity:0.97250863"
       id="path4663"
       d="m 107.04806,26.102581 c 0.97865,2.22077 2.40167,4.19574 3.80656,6.16037 1.1011,1.49011 2.26958,2.9456 3.64942,4.19012 0.58313,0.52595 0.73502,0.60871 1.33885,1.03386 0.3587,0.17969 0.89865,0.62823 1.34105,0.35858 0.13467,-0.0821 0.46214,-0.41779 0.32088,-0.34768 -4.29322,2.1311 -5.07672,3.6823 -3.70928,1.48315 1.11394,-2.53387 1.51699,-5.30872 1.926,-8.02671 0.30298,-1.32072 0.21728,-2.81504 0.66533,-4.09833 1.64738,-0.98037 3.22334,-2.09215 4.94213,-2.94111 0.16058,-0.0793 0.31983,0.16465 0.46405,0.27085 1.06663,0.7854 2.04728,2.12968 2.85299,3.15608 1.79787,2.35144 3.25185,4.93553 4.71002,7.50377 0,0 -4.45392,2.56398 -4.45392,2.56398 v 0 c -1.41611,-2.55835 -2.85886,-5.12243 -4.73167,-7.38255 -0.7617,-0.87193 -1.50976,-1.78962 -2.46045,-2.46967 -0.14508,-0.10378 -0.29484,-0.21364 -0.46647,-0.26229 -0.086,-0.0244 -0.33761,0.10385 -0.26227,0.0558 1.46902,-0.9377 2.97133,-1.8222 4.45699,-2.7333 -0.0715,0.0709 -0.16527,0.12491 -0.21434,0.21283 -0.1031,0.18477 -0.23354,0.83886 -0.26442,0.99366 -0.18691,0.93671 -0.33469,1.88141 -0.51707,2.81896 -0.46717,2.733 -0.86873,5.50351 -1.75982,8.13727 -1.15579,2.6779 -0.23027,0.97634 -5.44359,4.16335 -0.67284,0.41132 -1.45444,-0.21905 -1.9702,-0.57088 -1.88673,-1.57474 -3.42341,-3.50014 -4.8749,-5.47368 -0.90013,-1.23693 -1.80234,-2.47339 -2.66115,-3.73967 -1.2895,-1.90129 -0.12553,-0.21562 -1.1633,-1.80147 -0.094,-0.14373 -0.19749,-0.28109 -0.29623,-0.42164 0,0 4.77481,-2.83361 4.77481,-2.83361 z"
       inkscape:connector-curvature="0" />
    <path
       style="opacity:1;fill:#333333;stroke:#333333;stroke-width:0.43199998;stroke-miterlimit:4;stroke-dasharray:none;stroke-opacity:0.97250863"
       id="path4665"
       d="m 79.564055,59.386301 c 1.13162,2.97207 2.296562,5.93157 3.44937,8.89564 1.563709,3.89639 2.987479,7.84543 4.384185,11.80396 0.399593,1.13104 0.816121,2.25634 1.199529,3.3931 0.157972,0.46836 0.265377,0.95597 0.465899,1.40776 0.02727,0.0614 0.08937,0.1005 0.134049,0.15074 -5.049727,2.46529 -4.916414,4.18716 -4.860595,1.79398 0,0 4.82781,-2.52029 4.82781,-2.52029 v 0 c 0.52532,2.496 0.325893,0.53496 -4.791437,3.4657 -0.470366,-1.74207 -0.938435,-3.48512 -1.500833,-5.20059 -1.230133,-4.01281 -2.614274,-7.97778 -4.225997,-11.85472 -1.205849,-2.90996 -2.383102,-5.84665 -3.892851,-8.61592 0,0 4.810871,-2.71936 4.810871,-2.71936 z"
       inkscape:connector-curvature="0" />
    <path
       style="opacity:1;fill:#333333;stroke:#333333;stroke-width:0.43199998;stroke-miterlimit:4;stroke-dasharray:none;stroke-opacity:0.97250863"
       id="path4667"
       d="m 81.442181,55.004361 c 1.488752,2.41089 3.345566,4.57173 5.14912,6.74848 3.643767,4.24527 7.140641,8.60989 10.55316,13.04216 3.072809,3.97635 6.031889,8.02148 9.414179,11.74451 0.36061,0.37484 1.12308,1.19488 1.56561,1.56573 0.16846,0.14115 0.33891,0.29061 0.54111,0.37679 0.12704,0.0542 0.28875,0.0898 0.41321,0.0299 0.14311,-0.0689 0.44276,-0.43667 0.29776,-0.3719 -1.44096,0.64344 -2.81954,1.41833 -4.22931,2.12752 0.13606,-0.36918 0.30701,-0.72729 0.40818,-1.10752 0.33236,-1.2491 0.44246,-2.47367 0.50136,-3.76552 0.12554,-2.75358 -0.10403,-5.47876 -0.33743,-8.219 -0.47736,-4.9118 -1.50966,-9.74592 -2.81768,-14.49842 -0.24499,-0.8901 -0.51462,-1.77323 -0.77193,-2.65985 -0.95638,-3.17691 -2.05916,-6.31803 -3.516854,-9.30341 -0.792726,-1.62352 -1.050674,-1.98653 -1.951067,-3.49224 0,0 4.416941,-2.54962 4.416941,-2.54962 v 0 c 0.86931,1.56569 1.10093,1.92049 1.8787,3.59295 1.41326,3.03898 2.51882,6.20595 3.44275,9.42515 0.77271,2.77178 1.5408,5.54441 2.14866,8.35842 0.44803,2.0741 0.75196,3.80331 1.0565,5.90373 0.14448,0.9965 0.25937,1.99704 0.38906,2.99558 0.26754,2.72505 0.55516,5.43989 0.56675,8.18142 0.005,1.31559 -0.0225,2.47332 -0.22289,3.76391 -0.0612,0.3941 -0.17447,0.7783 -0.2617,1.16748 -1.66214,1.168 -3.27643,2.40723 -4.98641,3.50398 -0.1526,0.0979 -0.36418,0.076 -0.54222,0.0419 -0.37214,-0.0712 -0.76495,-0.46945 -0.99735,-0.71151 -0.37361,-0.38921 -1.12447,-1.32335 -1.42459,-1.68866 -3.109941,-3.92562 -5.986023,-8.02954 -9.068961,-11.97647 -3.451196,-4.41009 -7.028204,-8.71889 -10.779861,-12.87785 -1.9153,-2.14924 -3.796614,-4.32821 -5.615387,-6.56012 0,0 4.78059,-2.78763 4.78059,-2.78763 z"
       inkscape:connector-curvature="0" />
    <path
       style="opacity:1;fill:#333333;stroke:#333333;stroke-width:0.43199998;stroke-miterlimit:4;stroke-dasharray:none;stroke-opacity:0.97250863"
       id="path4669"
       d="m 114.67118,72.722711 c 0.47529,-1.10864 0.85141,-2.27595 1.49354,-3.30565 0.11401,-0.18281 0.24807,-0.3523 0.3721,-0.52843 1.76941,-1.66349 1.50444,-1.49096 5.76872,-3.14823 0.28506,-0.11078 0.58753,0.18391 0.85583,0.33071 1.35194,0.73964 2.30264,1.96006 3.27965,3.10901 2.03401,2.83938 3.77126,5.96683 4.71328,9.35059 0.15659,0.56245 0.25443,1.13961 0.38164,1.70944 0.2584,1.89625 0.18059,3.86213 -0.98264,5.47183 -0.66623,0.92191 -0.96836,0.9961 -1.90226,1.60477 -1.93906,0.97174 -3.80844,2.09717 -5.81717,2.91526 -0.45139,0.18383 -0.97435,0.0686 -1.46133,0.049 -1.66553,-0.0673 -3.22729,-0.52644 -4.68148,-1.33845 -0.52156,-0.29123 -1.00061,-0.65278 -1.50092,-0.97917 -1.45295,-1.11572 -2.61844,-2.50044 -3.5313,-4.08445 -0.29392,-0.51001 -0.5291,-1.05166 -0.79366,-1.5775 0,0 4.47084,-2.54487 4.47084,-2.54487 v 0 c 0.25183,0.51031 0.47336,1.03669 0.75548,1.53089 0.87248,1.52839 2.00658,2.84255 3.41952,3.89583 0.49025,0.30273 0.95876,0.64391 1.47076,0.9082 1.41941,0.73269 2.9937,1.12478 4.59433,1.08961 0.47658,-0.0106 1.74292,-0.50816 1.42156,-0.15605 -0.88406,0.96858 -2.1816,1.45589 -3.2724,2.18387 0.96446,-0.49403 1.2781,-0.53914 2.00747,-1.36861 1.27164,-1.44619 1.43634,-3.33632 1.26674,-5.17261 -0.10366,-0.56266 -0.17593,-1.13204 -0.31098,-1.68804 -0.65087,-2.67938 -1.89323,-5.25105 -3.43415,-7.52867 -0.37616,-0.55599 -0.80291,-1.076 -1.20436,-1.61403 -0.96593,-1.02886 -1.94347,-2.22533 -3.32786,-2.71722 -0.24491,-0.087 -0.9748,0.0505 -0.77169,-0.11168 1.17934,-0.94157 5.87572,-3.52647 3.58785,-2.26177 -0.13799,0.1577 -0.28809,0.3056 -0.41398,0.47314 -0.70145,0.9335 -1.08596,2.07131 -1.44906,3.16616 0,0 -5.00407,2.33712 -5.00407,2.33712 z"
       inkscape:connector-curvature="0" />
    <path
       style="opacity:1;fill:#333333;stroke:#333333;stroke-width:0.43199998;stroke-miterlimit:4;stroke-dasharray:none;stroke-opacity:0.97250863"
       id="path4671"
       d="m 135.86225,78.720811 c -0.0781,-0.22939 -0.14927,-0.46125 -0.23425,-0.68818 -0.5185,-1.38454 -1.11486,-2.74061 -1.67659,-4.10761 -0.75542,-1.83843 -0.61662,-1.51118 -1.31415,-3.36126 -0.48913,-1.36914 -0.96036,-2.75047 -1.28158,-4.17061 -0.10708,-0.47341 -0.26163,-1.31426 -0.28263,-1.82747 -0.009,-0.2304 0.0197,-0.46077 0.0295,-0.69114 0.11661,-0.45517 0.12484,-0.71514 0.44833,-1.08233 0.14308,-0.16241 0.31361,-0.30628 0.50374,-0.40971 1.79682,-0.9776 3.63092,-1.88502 5.44638,-2.82753 0,0 -4.28372,3.28692 -4.28372,3.28692 v 0 c 1.30629,-0.80618 2.63358,-1.57929 3.9189,-2.4185 0.16745,-0.10934 -0.38534,0.12047 -0.55685,0.22332 -0.40754,0.24438 -0.41111,0.40376 -0.60964,0.81116 -0.0358,0.20872 -0.0947,0.41476 -0.10764,0.62614 -0.0313,0.51003 0.0636,1.33121 0.14189,1.80757 0.23469,1.42676 0.6594,2.81278 1.11901,4.18049 0.20624,0.55552 0.40146,1.11525 0.61871,1.66653 0.85016,2.15734 1.85857,4.24919 2.95118,6.29314 0,0 -4.83056,2.68907 -4.83056,2.68907 z"
       inkscape:connector-curvature="0" />
    <path
       style="opacity:1;fill:#333333;stroke:#333333;stroke-width:0.43199998;stroke-miterlimit:4;stroke-dasharray:none;stroke-opacity:0.97250863"
       id="path4673"
       d="m 144.22057,42.996751 c 1.82898,1.11854 3.6408,2.29688 5.31086,3.64594 0.45793,0.36992 0.89318,0.76705 1.33978,1.15057 1.89659,1.6479 3.61801,3.48669 5.11361,5.50679 1.02873,1.38952 1.51352,2.2162 2.44487,3.68695 1.58366,2.6646 3.07432,5.39121 4.29125,8.24498 0.70378,1.65042 0.77205,1.92847 1.34445,3.56566 0.51637,1.65423 1.02547,3.40413 0.7653,5.15781 -0.14159,0.95443 -0.29349,1.12845 -0.68673,1.98192 -0.18529,0.26828 -0.34775,0.55388 -0.55589,0.80486 -1.41358,1.70447 -5.15242,3.33021 -6.03839,3.79484 -0.2972,0.15587 -0.6521,0.17118 -0.98625,0.2023 -0.97018,0.0904 -1.31094,-0.0499 -2.2716,-0.23609 -1.72257,-0.46199 -3.3702,-1.17035 -4.81923,-2.2193 -0.83732,-0.60613 -1.24272,-1.01692 -1.99417,-1.70688 -0.99219,-1.06989 -2.27203,-2.30732 -2.33636,-3.87953 -0.0116,-0.28469 0.0509,-0.56758 0.0764,-0.85137 0.25261,-1.08181 0.92211,-1.89067 1.59613,-2.73566 0,0 4.87839,-2.07394 4.87839,-2.07394 v 0 c -0.64517,0.74615 -1.30104,1.4704 -1.6304,2.42221 -0.0443,0.23617 -0.12275,0.46842 -0.13284,0.70847 -0.0579,1.37853 1.1919,2.69799 2.0377,3.63559 0.74741,0.7002 1.06545,1.04587 1.91758,1.64343 1.42227,0.99735 3.04884,1.63857 4.73936,2.00914 0.93228,0.10499 1.26226,0.22101 2.17978,0.0287 0.31779,-0.0666 1.19056,-0.49596 0.92252,-0.31267 -1.20732,0.82544 -2.50911,1.50346 -3.76367,2.25519 0.23576,-0.18925 0.49216,-0.35533 0.70728,-0.56777 0.22363,-0.22079 0.40153,-0.48355 0.6023,-0.72535 0.44434,-0.76788 0.60766,-0.91541 0.80086,-1.80633 0.36631,-1.68921 -0.0809,-3.42745 -0.50362,-5.05572 -0.50251,-1.62364 -0.56802,-1.94683 -1.22367,-3.57696 -1.14856,-2.85569 -2.622,-5.56911 -4.23719,-8.18512 -1.036,-1.58389 -1.34309,-2.11985 -2.4812,-3.6048 -1.51102,-1.97151 -3.23353,-3.76896 -5.11577,-5.38856 -0.44786,-0.36981 -0.8842,-0.75404 -1.34358,-1.10944 -1.44562,-1.11842 -3.15209,-2.25113 -4.80189,-3.04993 -0.23818,-0.11532 -0.48744,-0.20619 -0.73116,-0.30928 0,0 4.58515,-3.05065 4.58515,-3.05065 z"
       inkscape:connector-curvature="0" />
    <path
       style="opacity:1;fill:#333333;stroke:#333333;stroke-width:0.43199998;stroke-miterlimit:4;stroke-dasharray:none;stroke-opacity:0.97250863"
       id="path4675"
       d="m 161.47108,56.467081 c -3.20728,-0.10968 -6.41958,-0.0251 -9.62729,0.0427 -2.16461,0.0368 -4.32422,0.16967 -6.48296,0.3226 0,0 4.06316,-2.99338 4.06316,-2.99338 v 0 c 2.15484,-0.13326 4.31027,-0.24382 6.46924,-0.28634 3.35068,-0.0915 6.70189,-0.17647 10.05023,-0.33498 0,0 -4.47238,3.24938 -4.47238,3.24938 z"
       inkscape:connector-curvature="0" />
    <path
       style="opacity:1;fill:#333333;stroke:#333333;stroke-width:0.43199998;stroke-miterlimit:4;stroke-dasharray:none;stroke-opacity:0.97250863"
       id="path4677"
       d="m 170.30361,65.199151 c 0.65671,2.44467 1.65848,4.77845 2.69057,7.08374 0.45118,0.96761 0.928,1.92551 1.44781,2.85842 0.10306,0.18498 0.43569,0.7819 0.62845,0.96881 0.0634,0.0615 0.15735,0.0805 0.23603,0.12075 1.2384,-1.55136 -0.28812,0.4196 -4.21581,2.12765 -0.24699,0.10742 0.3424,-0.41783 0.48442,-0.64667 0.67349,-1.0853 1.08126,-2.31375 1.51534,-3.50513 0.89792,-2.56806 1.52129,-5.2194 2.05784,-7.88299 0.23271,-1.05603 0.3912,-2.12611 0.59549,-3.18738 1.66462,-0.86895 3.25317,-1.90256 4.99387,-2.60684 0.16884,-0.0683 0.1777,0.31832 0.25589,0.48283 0.17543,0.36913 0.527,1.24926 0.65517,1.56682 0.42545,1.05413 0.52705,1.31732 0.95781,2.40728 1.22602,3.3645 2.32382,6.77323 3.52766,10.14556 0.75548,2.08717 1.51787,4.17296 2.38594,6.21636 0,0 -4.68056,2.60863 -4.68056,2.60863 v 0 c -0.75293,-2.10732 -1.45426,-4.23277 -2.19205,-6.34539 -1.15502,-3.37206 -2.27336,-6.75982 -3.61653,-10.06337 -0.46589,-1.08075 -0.92304,-2.16499 -1.47653,-3.20493 -0.10235,-0.1923 -0.20886,-0.38269 -0.32497,-0.56703 -0.0417,-0.0661 -0.21309,-0.14049 -0.14717,-0.18245 1.53727,-0.97867 3.15515,-1.82454 4.73274,-2.73681 -0.0466,0.0394 -0.11095,0.0643 -0.13967,0.11805 -0.0741,0.13867 -0.17703,0.69239 -0.20087,0.79784 -0.16927,0.74879 -0.36544,1.49119 -0.54113,2.23846 -0.60742,2.68385 -1.25463,5.36312 -2.11089,7.98017 -0.91651,2.77739 -2.68962,8.81147 -7.19073,7.17947 -0.0963,-0.098 -0.20683,-0.18388 -0.28884,-0.29414 -0.1791,-0.24079 -0.46116,-0.84148 -0.57273,-1.07759 -0.46094,-0.9755 -0.90041,-1.96152 -1.34343,-2.94519 -1.00864,-2.32872 -1.9737,-4.67494 -2.9371,-7.02265 0,0 4.81398,-2.63228 4.81398,-2.63228 z"
       inkscape:connector-curvature="0" />
    <path
       style="opacity:1;fill:#333333;stroke:#333333;stroke-width:0.43199998;stroke-miterlimit:4;stroke-dasharray:none;stroke-opacity:0.97250863"
       id="path4679"
       d="m 192.91571,78.964731 c -0.51579,-2.67435 -0.98896,-5.35453 -1.36911,-8.05193 -0.13743,-1.40013 -0.40604,-2.84867 -0.0239,-4.23045 0.0626,-0.12087 0.11032,-0.25064 0.18775,-0.36256 0.0766,-0.1107 0.15502,-0.23063 0.27048,-0.2998 1.68076,-1.00703 3.36943,-2.00408 5.10198,-2.91915 0.16394,-0.0866 0.36738,-0.0516 0.55213,-0.0671 0.66761,-0.0562 0.82748,-0.0359 1.5303,-0.0276 2.32597,0.12697 4.63904,0.42852 6.95238,0.69401 0.38482,0.04 0.76964,0.08 1.15445,0.11993 0,0 -4.3221,3.06885 -4.3221,3.06885 v 0 c -0.38162,-0.0438 -0.76322,-0.0876 -1.14483,-0.13142 -2.32045,-0.27479 -4.6485,-0.58041 -6.98906,-0.57518 -0.56996,0.0345 -0.98108,0.0301 -1.52924,0.16495 -0.17234,0.0424 -0.6526,0.27164 -0.50178,0.17808 1.41909,-0.88047 2.8835,-1.68584 4.3159,-2.54452 0.1039,-0.0623 -0.22805,0.0875 -0.32899,0.15452 -0.0953,0.0633 -0.16874,0.15454 -0.25311,0.23182 -0.0581,0.10851 -0.1306,0.2104 -0.17418,0.3255 -0.41493,1.09566 -0.15551,2.63958 -0.13601,3.77174 0.28622,2.67287 0.68188,5.34209 1.50987,7.90884 0,0 -4.80298,2.59149 -4.80298,2.59149 z"
       inkscape:connector-curvature="0" />
  </g>
</svg>
