<svg xmlns="http://www.w3.org/2000/svg" viewBox="0 0 199.52661 85.61426"><g fill="#333" stroke="#333" stroke-opacity=".97251" stroke-width=".432"><path d="M5.13553 1.73578c.16713 1.80128.26864 3.60504.32943 5.41292.0804 3.2164.27312 6.4271.56227 9.63105.36775 3.92912 1.04087 7.8179 1.8639 11.6744.65186 3.02513 1.6171 5.97595 2.89552 8.7944.22927.50548.4819 1.00002.72284 1.50003.8497 1.61114 1.684 3.24493 2.7474 4.72975.4815.6724.7404.95073 1.2653 1.56518.7198.7287 1.5657 1.5793 2.6637 1.6272.2065.009.4123-.0289.6185-.0433.2469-.0623.4978-.1107.7408-.1868.6619-.2072 1.2342-.4687 1.8677-.7554 1.045-.4729 2.0704-.9818 3.0913-1.5041.296-.1556.5946-.3064.8881-.4668.2599-.142 1.0292-.587.7718-.4404-4.1501 2.3633-5.2205 3.1441-3.4575 1.8993l5.0526-2.0079c-2.2534 1.7701-4.8768 3.0062-7.405 4.3376-1.0281.5101-2.0573 1.021-3.1118 1.4753-.6446.2776-1.313.5594-2.0008.7187-.274.0634-.5565.082-.8348.123-.6267-.0427-.7404.002-1.3116-.2298-.8845-.3597-1.543-1.1038-2.1666-1.7933-.5149-.6529-.7621-.9426-1.2373-1.6496-1.0322-1.5356-1.8487-3.2032-2.6728-4.8552-1.5462-3.3516-2.8872-6.7992-3.6106-10.4328-.8343-3.871-1.4728-7.7799-1.9081-11.7168-.333-3.1837-.5835-6.3736-.7417-9.5709C.6733 7.8178.574 6.0592.2422 4.3317l4.8933-2.59593z"/><path d="M32.661 26.04926c.38946 1.95325 1.17548 3.78996 2.05273 5.5669.8047 1.47262 1.71837 3.0006 3.10223 4.00886.2054.14965.43295.2662.64942.3993 1.09392.50033 2.3321.7791 3.53313.52878.2696-.0562.5261-.16247.7892-.2437.2737-.13398.5538-.25558.8211-.40194.2924-.1601 1.1496-.6749.8563-.51654-1.232.66523-2.4002 1.45442-3.6732 2.03754-.3461.15856.591-.48198.8617-.74962.7309-.72244.9279-1.06675 1.5306-1.89826 1.3346-2.04294 2.159-4.35127 2.8246-6.68347.3516-1.1651.5424-2.3634.7179-3.5637.2261-2.1012.0336-1.026 5.2098-2.5404.2404-.0703.2627.4276.3715.6531.663 1.3737 1.0884 2.8492 1.5404 4.2996 1.1381 3.9951 1.7665 8.1264 1.7693 12.2834.0006.8963-.0526 1.7918-.0789 2.6877-.2662 3.3666-1.0061 6.7314-2.6843 9.6962-1.0493 1.8538-1.3855 2.042-2.8097 3.5855-3.0369 2.5243-6.5133 4.7546-10.3852 5.6905-1.7255.4171-3.6224.5928-5.3896.6194-1.0113.0153-2.022-.0588-3.0331-.0883-2.9146-.3179-3.5093-.3134-6.4047-.9118-1.0768-.2225-2.1392-.51-3.2089-.765l3.8863-2.6888c1.0651.2461 2.1226.5271 3.1951.7384 2.9186.575 3.4748.5496 6.4146.8173 1.0162.007 2.0332.0616 3.0486.0206 1.7833-.072 3.6818-.3086 5.409-.7871.7758-.2149 2.2117-1.6136 2.2747-.8111.0689.8777-1.3663 1.2346-2.2269 1.4202-.7289.1572 1.2-.8854 1.8001-1.3281 1.4544-1.4688 1.8229-1.6701 2.9112-3.4655 1.7494-2.8861 2.52346-6.209 2.838-9.5351.0748-2.2547.15594-3.0462.01255-5.2977-.2038-3.2005-.82663-6.364-1.80715-9.4154-.5033-1.3641-.6384-1.8506-1.2476-3.0954-.1549-.3164-.322-.6276-.5099-.9256-.1071-.1698-.5341-.3543-.3724-.4734 4.0638-2.9944 6.4045-2.0699 4.4669-2.783-.1317.4066-.1914.8219-.2803 1.2398-.1747.8214-.3833 1.6355-.6165 2.4421-.6992 2.3704-1.5155 4.7331-2.7959 6.8599-.5699.853-.77728 1.2307-1.4622 1.9924-.2563.2851-.4957.6002-.8166.8098-1.7693 1.1557-3.6129 2.1936-5.43088 3.2711-.29534.1751-.59644.342-.90805.4862-.2897.134-.59504.2312-.8926.3468-.2869.0587-.57003.1404-.8607.17604-1.30146.1597-2.599-.1954-3.73176-.8192-.22506-.15784-.4617-.30035-.6752-.47355-1.3764-1.1166-2.28486-2.70586-3.1223-4.23435-.9029-1.7858-1.6817-3.6234-2.3125-5.524l4.85065-2.6568zM41.88273.19956c-1.63613 1.48542-3.1594 3.0971-4.53225 4.82954-.40006.50486-.77813 1.02675-1.1672 1.54012-1.4747 2.22923-.77978 1.0794-2.08126 3.45158l-4.61607 2.07306c1.25897-2.41213.5841-1.24397 2.02016-3.50708 1.6192-2.2149 3.2904-4.34176 5.2543-6.26548L41.8828.19956zM58.54876 15.9016c.905 3.55357 2.4093 6.91146 3.94925 10.2261 1.44 2.93132 2.9045 5.88305 4.8225 8.53964.2613.3619.548.70472.822 1.05707.5639.6503 1.1201 1.3541 1.857 1.824.208.1326.585.327.8623.2704.1321-.027.2351-.1321.3527-.1981-1.442.7828-2.8408 1.6512-4.3261 2.3484-.2035.0955.3129-.3276.43-.5195.1523-.2494.2718-.5194.372-.794.4094-1.1215.5269-2.3168.6687-3.4921.134-1.2054.0897-2.4149.038-3.6226l4.712-2.4251c.0479 1.2359.0817 2.4726-.0293 3.7072-.119 1.1959-.2193 2.4043-.5161 3.5734-.0318.1256-.3891 1.3716-.6046 1.5169-1.6441 1.1092-3.4132 2.0208-5.1198 3.0313-.1675-.005-.3383.0204-.5025-.013-1.084-.2207-2.0889-1.7448-2.71-2.5325-.2595-.3729-.5299-.7384-.7784-1.1187-1.803-2.7597-3.2552-5.7339-4.7218-8.6792-.906-1.9406-1.8058-3.884-2.6419-5.8562-.693-1.6348-.6532-1.6134-1.2736-3.1693-.1398-.3507-.2852-.6992-.4278-1.0489l4.7659-2.6248z"/><path d="M68.1919 21.57432c-3.1553 1.78206-6.26615 3.6422-9.47843 5.31996l4.05775-3.2617c1.6003-.86074 1.04187-.54776 2.56432-1.41422.3484-.19828 1.39002-.7993 1.04377-.5973-5.2542 3.0654-4.9497 2.88685-3.3481 1.93693l5.1607-1.9837zM79.233 16.8119c.6294 2.47254 1.76127 4.7811 2.839 7.08142.98074 2.06255 2.04335 4.08848 3.36972 5.95246.72794 1.02298.87238 1.15622 1.6565 2.08218 1.00476 1.10974 2.18922 2.09655 3.6699 2.47355.21074.0536.42853.0744.64278.1116.4721-.01.7371.0312 1.18305-.1593.1882-.0804.7033-.4182.5226-.3222-1.37617.7313-2.6795 1.61-4.10987 2.2286-.2639.1142.37912-.4357.53003-.6805.1763-.2857.2976-.6019.4464-.9028.6962-1.9816.7419-4.1284.2111-6.1592-.1062-.4066-.2625-.7984-.3938-1.1976l4.6116-2.5385c.1396.4189.3046.8301.4188 1.2566.5619 2.0978.5709 4.3199.003 6.4135-.0872.2288-.5345 1.5514-.8148 1.7512-1.6513 1.1767-3.4182 2.1835-5.1626 3.2171-.1862.1104-.4037.1631-.6157.2069-.5207.1077-.7721.0383-1.2925-.0186-.2237-.0608-.452-.1069-.6711-.1825-1.503-.5185-2.6946-1.5899-3.7013-2.7883-.7222-.9188-.9456-1.17-1.6168-2.1684-1.2881-1.9161-2.3268-3.9789-3.3504-6.044-1.1212-2.2977-2.2537-4.592-3.2444-6.9501l4.8693-2.6625z"/><path d="M82.5091 26.88226c-.21348.1032-.4239.21298-.6404.30964-1.37543.6141-2.78764 1.1454-4.18122 1.71553-.40336.16502-3.2956 1.37618-3.6819 1.53783-2.3196.9744-1.17934.4998-3.4205 1.4245l4.035-3.17868c2.20125-.89756 1.0795-.43602 3.36488-1.38548 2.96755-1.24432 5.9713-2.4203 8.85037-3.86182l-4.32624 3.43848zm16.20103-7.02016c.97865 2.22078 2.40167 4.19575 3.80656 6.16038 1.1011 1.4901 2.2695 2.9456 3.6494 4.19012.5831.52595.735.6087 1.3388 1.03386.3587.1797.8986.62823 1.341.35858.1346-.0821.4621-.4178.3209-.34768-4.2933 2.1311-5.0768 3.6823-3.7093 1.48315 1.1139-2.5338 1.517-5.3087 1.926-8.0267.303-1.3207.2173-2.815.6653-4.0983 1.6474-.9803 3.2233-2.0921 4.9421-2.9411.1606-.0793.3198.1647.464.2709 1.0666.7854 2.0473 2.1297 2.853 3.1561 1.7978 2.3515 3.2518 4.9355 4.71 7.5038l-4.4539 2.564c-1.4161-2.5583-2.8589-5.1224-4.7317-7.3825-.7617-.8719-1.5098-1.7896-2.4605-2.4696-.1451-.1038-.2949-.2136-.4665-.2623-.086-.0244-.3376.1039-.2623.0558 1.469-.9377 2.9713-1.8222 4.457-2.7333-.0715.0709-.1653.1249-.2143.2129-.1031.1848-.2336.8389-.2645.9937-.1869.9367-.3347 1.8814-.5171 2.819-.4672 2.733-.8687 5.5035-1.7598 8.1373-1.1558 2.6779-.2303.9764-5.4436 4.1634-.6728.4113-1.4544-.219-1.9702-.5709-1.8867-1.5747-3.4234-3.5001-4.8749-5.4736-.9001-1.2369-1.8023-2.4734-2.6612-3.7397-1.2895-1.9013-.1255-.2156-1.1633-1.8014-.094-.1437-.1975-.2811-.2962-.4216l4.7748-2.8336zm-27.484 33.28373c1.13162 2.97207 2.29656 5.93157 3.44937 8.89564 1.5637 3.8964 2.98748 7.84543 4.38418 11.80396.3996 1.13104.81613 2.25634 1.19953 3.3931.158.46836.2654.95597.4659 1.40776.0273.0614.0894.1005.1341.1507-5.0497 2.4653-4.9164 4.1871-4.8606 1.794l4.8278-2.5203c.5253 2.496.3259.5349-4.7914 3.4657-.4703-1.7421-.9384-3.4851-1.5008-5.2006-1.2301-4.0128-2.6142-7.9778-4.226-11.8547-1.2058-2.91-2.3831-5.8467-3.8928-8.616l4.8109-2.7194z"/><path d="M73.10426 48.7639c1.48875 2.41088 3.34556 4.57172 5.14912 6.74847 3.64376 4.24527 7.14064 8.6099 10.55316 13.04216 3.0728 3.97635 6.03188 8.02148 9.41417 11.7445.3607.37485 1.1231 1.1949 1.5657 1.56574.1685.14115.3389.2906.5411.3768.1271.0542.2888.0898.4132.0299.1431-.0689.4428-.43668.2978-.3719-1.4409.64343-2.8195 1.41832-4.2293 2.1275.1361-.36917.307-.72728.4082-1.1075.3324-1.2491.4425-2.47368.5014-3.76553.1256-2.75358-.104-5.47876-.3374-8.219-.4773-4.9118-1.5096-9.74592-2.8176-14.49842-.245-.8901-.5146-1.77323-.7719-2.65985-.9564-3.1769-2.0591-6.31803-3.5168-9.3034-.7927-1.62353-1.0506-1.98654-1.951-3.49225l4.4169-2.54962c.8694 1.5657 1.101 1.9205 1.8787 3.59295 1.4133 3.03898 2.5189 6.20595 3.4428 9.42515.7727 2.77178 1.5408 5.5444 2.1487 8.35842.448 2.0741.752 3.8033 1.0565 5.90373.1445.9965.2594 1.99704.3891 2.99558.2676 2.72505.5552 5.4399.5668 8.18142.005 1.3156-.0225 2.47332-.2229 3.7639-.0612.3941-.1745.7783-.2617 1.1675-1.6621 1.168-3.2764 2.40722-4.9864 3.50397-.1526.0979-.3642.076-.5422.0419-.3721-.0712-.7649-.46945-.9973-.7115-.3736-.38922-1.1244-1.32336-1.4246-1.68867-3.1099-3.92562-5.986-8.02954-9.0689-11.97647-3.4512-4.4101-7.0282-8.7189-10.7799-12.87785-1.9153-2.14924-3.7966-4.3282-5.6153-6.56012l4.7806-2.7876zm33.229 17.71834c.4753-1.10864.8514-2.27595 1.49353-3.30565.114-.1829.248-.3523.3721-.5285 1.7694-1.6635 1.5044-1.491 5.7687-3.1483.285-.1108.5875.1839.8558.3307 1.3519.7396 2.3026 1.96 3.2796 3.109 2.034 2.8393 3.7712 5.9668 4.7132 9.3506.1566.5624.2544 1.1396.3816 1.7094.2584 1.8962.1806 3.8621-.9827 5.4718-.6662.9219-.9684.9961-1.9023 1.6047-1.9391.9717-3.8085 2.0971-5.8172 2.9152-.4514.1838-.9744.0686-1.4614.049-1.6655-.0673-3.2273-.5265-4.6815-1.3385-.5216-.2913-1.0006-.6528-1.5009-.9792-1.4529-1.1157-2.6184-2.5005-3.5313-4.0845-.2939-.51-.5291-1.0517-.7937-1.5775l4.4708-2.5449c.2518.5103.47333 1.0367.75545 1.5309.8725 1.5284 2.0066 2.8425 3.4195 3.8958.4902.3027.9587.6439 1.4707.9082 1.4194.7327 2.9937 1.1248 4.5944 1.0896.47654-.0106 1.7429-.5082 1.42152-.156-.88406.9686-2.1816 1.4559-3.2724 2.1839.9645-.494 1.2781-.5392 2.0075-1.3686 1.27163-1.4462 1.43633-3.3363 1.26673-5.1726-.1037-.5627-.17595-1.1321-.311-1.6881-.6509-2.6794-1.89325-5.2511-3.43417-7.5287-.3762-.556-.8029-1.076-1.2044-1.6141-.9659-1.0289-1.94348-2.2254-3.32787-2.7172-.2449-.087-.9748.0505-.7717-.1117 1.17933-.9416 5.8757-3.5265 3.58784-2.2618-.138.1577-.2881.3056-.414.4731-.70148.9335-1.086 2.0713-1.4491 3.1661l-5.004 2.3371zm21.19106 5.9981c-.0781-.2294-.14927-.46125-.23425-.68818-.5185-1.38454-1.11486-2.7406-1.6766-4.1076-.7554-1.83844-.6166-1.5112-1.31414-3.36127-.48913-1.3692-.96036-2.7505-1.28158-4.1707-.10708-.4734-.26163-1.3143-.28263-1.8275-.009-.2304.0197-.4608.0295-.6912.1166-.4552.12484-.7152.44833-1.0824.14308-.1624.3136-.3063.50374-.4097 1.7968-.9776 3.6309-1.8851 5.4463-2.8276l-4.2837 3.2869c1.3063-.8062 2.6336-1.5793 3.9189-2.4185.1674-.1094-.3854.1205-.5569.2233-.4076.2443-.4111.4037-.6097.8111-.0358.2087-.0947.4147-.1077.6261-.0313.51.0636 1.3312.1419 1.8075.2347 1.4267.6594 2.8128 1.119 4.1805.2062.5555.4014 1.1152.6187 1.6665.8501 2.1573 1.8586 4.2492 2.9512 6.2931l-4.8306 2.6891zm8.35832-35.72406c1.82898 1.11854 3.6408 2.29688 5.31086 3.64594.45793.36992.89318.76705 1.33978 1.15057 1.8966 1.6479 3.618 3.4866 5.1136 5.5067 1.02874 1.3895 1.51353 2.2162 2.44488 3.6869 1.58366 2.6646 3.07432 5.3912 4.29125 8.245.7038 1.6504.7721 1.9284 1.3445 3.5656.5164 1.6542 1.0255 3.4041.7653 5.1578-.1416.9544-.2935 1.1284-.6867 1.9819-.1853.2682-.3477.5538-.5559.8048-1.4135 1.7044-5.1524 3.3302-6.0384 3.7948-.2972.1559-.6521.1712-.9862.2023-.9701.0904-1.3109-.0499-2.2716-.2361-1.7225-.462-3.3702-1.1704-4.8192-2.2193-.8373-.6061-1.2427-1.0169-1.9941-1.7069-.9922-1.0699-2.272-2.3073-2.3363-3.8796-.0116-.2847.0509-.5676.0764-.8514.2526-1.0818.9221-1.8907 1.5962-2.7357l4.8784-2.074c-.6451.7461-1.301 1.4704-1.6304 2.4222-.0443.2362-.1227.4684-.1328.7085-.0579 1.3785 1.1919 2.698 2.0377 3.6356.7474.7002 1.0654 1.0459 1.9176 1.6434 1.4223.9973 3.0489 1.6386 4.7394 2.0091.9323.105 1.2623.221 2.1798.0287.3178-.0666 1.1906-.496.9225-.3127-1.2073.8255-2.5091 1.5035-3.7636 2.2552.2358-.1892.4922-.3553.7073-.5678.2237-.2208.4016-.4836.6023-.7254.4444-.7679.6077-.9154.8009-1.80637.3663-1.6892-.0809-3.42744-.5036-5.0557-.5025-1.62366-.568-1.9468-1.2236-3.57698-1.1485-2.8557-2.622-5.5691-4.2372-8.1851-1.036-1.5839-1.3431-2.1198-2.4812-3.6048-1.511-1.9715-3.2335-3.76894-5.1157-5.38854-.4479-.3698-.8842-.75404-1.3436-1.10944-1.4456-1.1184-3.1521-2.2511-4.8019-3.0499-.2381-.1153-.4874-.2062-.7311-.3093l4.58518-3.0507z"/><path d="M153.13315 50.2266c-3.20728-.10967-6.41958-.0251-9.6273.0427-2.1646.0368-4.3242.16968-6.48295.3226l4.06316-2.99337c2.15484-.13326 4.31027-.24382 6.46924-.28634 3.35068-.0915 6.7019-.1765 10.05023-.335l-4.47238 3.2494zm8.83253 8.73208c.6567 2.44467 1.65848 4.77845 2.69057 7.08374.45118.9676.928 1.9255 1.4478 2.85842.10307.18498.4357.7819.62846.9688.0634.0615.1574.0805.2361.12076 1.2384-1.55136-.2881.4196-4.2158 2.12765-.247.10742.3424-.41783.4844-.64667.6735-1.0853 1.0813-2.31375 1.5154-3.50513.8979-2.56806 1.5213-5.2194 2.0579-7.883.2327-1.05602.3912-2.1261.5955-3.18737 1.6646-.86895 3.2532-1.90256 4.9939-2.60684.1688-.0683.1777.31832.2559.48283.1755.36913.527 1.24926.6552 1.56682.4255 1.0541.5271 1.3173.9578 2.4072 1.226 3.3645 2.3238 6.7732 3.5277 10.1455.7555 2.0871 1.5179 4.1729 2.386 6.2163l-4.6805 2.6086c-.7529-2.1074-1.4542-4.2328-2.192-6.3454-1.155-3.3721-2.2733-6.7598-3.6165-10.0634-.4659-1.0808-.923-2.165-1.4765-3.2049-.1023-.1923-.2088-.3827-.325-.5671-.0417-.0661-.2131-.1405-.1471-.1825 1.5373-.9787 3.1552-1.8246 4.7328-2.7368-.0466.0394-.1109.0643-.1396.118-.0741.1386-.177.6923-.2009.7978-.1693.7488-.3654 1.4912-.5411 2.2384-.6074 2.6838-1.2546 5.3631-2.1109 7.9801-.9165 2.7774-2.6896 8.8115-7.1907 7.1795-.0963-.098-.2068-.1839-.2888-.2942-.1791-.2408-.46115-.8415-.57272-1.0776-.4609-.9755-.9004-1.9615-1.3434-2.9452-1.00862-2.3287-1.9737-4.6749-2.9371-7.0227l4.814-2.6323zm22.6121 13.76558c-.5158-2.67435-.98896-5.35453-1.3691-8.05193-.13744-1.40013-.40605-2.84867-.0239-4.23045.0626-.12087.1103-.25064.18774-.36256.0766-.1107.15502-.23063.27048-.2998 1.68076-1.00703 3.36943-2.00408 5.10198-2.91915.16394-.0866.36738-.0516.55213-.0671.6677-.0562.8275-.0359 1.5303-.0276 2.326.12697 4.6391.42852 6.9524.694.3848.04.7697.08 1.1545.11994l-4.3221 3.0689-1.1448-.1314c-2.3204-.2748-4.6485-.5804-6.989-.5752-.5699.0345-.9811.0301-1.5292.165-.1723.0424-.6526.2717-.5017.1781 1.4191-.8805 2.8835-1.6858 4.3159-2.5445.1039-.0623-.228.0875-.329.1545-.0953.0633-.1687.1546-.2531.2318-.0581.1086-.1306.2104-.1742.3255-.4149 1.0957-.1555 2.6396-.136 3.7718.2862 2.6729.6819 5.3421 1.5099 7.9089l-4.803 2.5915z"/></g></svg>